<svg width="114" height="77" viewBox="0 0 114 77" fill="none" xmlns="http://www.w3.org/2000/svg">
<path d="M8.66477 40.1364C8.03409 40.1364 7.49006 39.9972 7.03267 39.7188C6.57812 39.4375 6.22727 39.0455 5.98011 38.5426C5.7358 38.0369 5.61364 37.4489 5.61364 36.7784C5.61364 36.108 5.7358 35.517 5.98011 35.0057C6.22727 34.4915 6.57102 34.0909 7.01136 33.804C7.45455 33.5142 7.97159 33.3693 8.5625 33.3693C8.90341 33.3693 9.24006 33.4261 9.57244 33.5398C9.90483 33.6534 10.2074 33.8381 10.4801 34.0938C10.7528 34.3466 10.9702 34.6818 11.1321 35.0994C11.294 35.517 11.375 36.0312 11.375 36.642V37.0682H6.32955V36.1989H10.3523C10.3523 35.8295 10.2784 35.5 10.1307 35.2102C9.9858 34.9205 9.77841 34.6918 9.50852 34.5241C9.24148 34.3565 8.92614 34.2727 8.5625 34.2727C8.16193 34.2727 7.81534 34.3722 7.52273 34.571C7.23295 34.767 7.00994 35.0227 6.85369 35.3381C6.69744 35.6534 6.61932 35.9915 6.61932 36.3523V36.9318C6.61932 37.4261 6.70455 37.8452 6.875 38.1889C7.0483 38.5298 7.28835 38.7898 7.59517 38.9688C7.90199 39.1449 8.25852 39.233 8.66477 39.233C8.92898 39.233 9.16761 39.196 9.38068 39.1222C9.59659 39.0455 9.78267 38.9318 9.93892 38.7812C10.0952 38.6278 10.2159 38.4375 10.3011 38.2102L11.2727 38.483C11.1705 38.8125 10.9986 39.1023 10.7571 39.3523C10.5156 39.5994 10.2173 39.7926 9.86222 39.9318C9.5071 40.0682 9.10795 40.1364 8.66477 40.1364ZM18.0579 33.4545L15.6374 40H14.6147L12.1942 33.4545H13.2852L15.092 38.6705H15.1602L16.967 33.4545H18.0579ZM21.8952 40.1364C21.2646 40.1364 20.7205 39.9972 20.2631 39.7188C19.8086 39.4375 19.4577 39.0455 19.2106 38.5426C18.9663 38.0369 18.8441 37.4489 18.8441 36.7784C18.8441 36.108 18.9663 35.517 19.2106 35.0057C19.4577 34.4915 19.8015 34.0909 20.2418 33.804C20.685 33.5142 21.2021 33.3693 21.793 33.3693C22.1339 33.3693 22.4705 33.4261 22.8029 33.5398C23.1353 33.6534 23.4379 33.8381 23.7106 34.0938C23.9833 34.3466 24.2006 34.6818 24.3626 35.0994C24.5245 35.517 24.6055 36.0312 24.6055 36.642V37.0682H19.56V36.1989H23.5827C23.5827 35.8295 23.5089 35.5 23.3612 35.2102C23.2163 34.9205 23.0089 34.6918 22.739 34.5241C22.4719 34.3565 22.1566 34.2727 21.793 34.2727C21.3924 34.2727 21.0458 34.3722 20.7532 34.571C20.4634 34.767 20.2404 35.0227 20.0842 35.3381C19.9279 35.6534 19.8498 35.9915 19.8498 36.3523V36.9318C19.8498 37.4261 19.935 37.8452 20.1055 38.1889C20.2788 38.5298 20.5188 38.7898 20.8256 38.9688C21.1325 39.1449 21.489 39.233 21.8952 39.233C22.1594 39.233 22.3981 39.196 22.6112 39.1222C22.8271 39.0455 23.0131 38.9318 23.1694 38.7812C23.3256 38.6278 23.4464 38.4375 23.5316 38.2102L24.5032 38.483C24.4009 38.8125 24.229 39.1023 23.9876 39.3523C23.7461 39.5994 23.4478 39.7926 23.0927 39.9318C22.7376 40.0682 22.3384 40.1364 21.8952 40.1364ZM26.1353 40V33.4545H27.1069V34.4432H27.1751C27.2944 34.1193 27.5103 33.8565 27.8228 33.6548C28.1353 33.4531 28.4876 33.3523 28.8796 33.3523C28.9535 33.3523 29.0458 33.3537 29.1566 33.3565C29.2674 33.3594 29.3512 33.3636 29.408 33.3693V34.392C29.3739 34.3835 29.2958 34.3707 29.1737 34.3537C29.0543 34.3338 28.9279 34.3239 28.7944 34.3239C28.4762 34.3239 28.1921 34.3906 27.9421 34.5241C27.695 34.6548 27.4989 34.8366 27.354 35.0696C27.212 35.2997 27.141 35.5625 27.141 35.858V40H26.1353Z" fill="black"/>
<path d="M41.9205 40V33.4545H42.9261V40H41.9205ZM42.4318 32.3636C42.2358 32.3636 42.0668 32.2969 41.9247 32.1634C41.7855 32.0298 41.7159 31.8693 41.7159 31.6818C41.7159 31.4943 41.7855 31.3338 41.9247 31.2003C42.0668 31.0668 42.2358 31 42.4318 31C42.6278 31 42.7955 31.0668 42.9347 31.2003C43.0767 31.3338 43.1477 31.4943 43.1477 31.6818C43.1477 31.8693 43.0767 32.0298 42.9347 32.1634C42.7955 32.2969 42.6278 32.3636 42.4318 32.3636ZM44.7681 40V33.4545H45.7397V34.4773H45.8249C45.9613 34.1278 46.1815 33.8565 46.4854 33.6634C46.7894 33.4673 47.1545 33.3693 47.5806 33.3693C48.0124 33.3693 48.3718 33.4673 48.6587 33.6634C48.9485 33.8565 49.1744 34.1278 49.3363 34.4773H49.4045C49.5721 34.1392 49.8235 33.8707 50.1587 33.6719C50.494 33.4702 50.896 33.3693 51.3647 33.3693C51.9499 33.3693 52.4286 33.5526 52.8008 33.919C53.1729 34.2827 53.359 34.8494 53.359 35.6193V40H52.3533V35.6193C52.3533 35.1364 52.2212 34.7912 51.957 34.5838C51.6928 34.3764 51.3817 34.2727 51.0238 34.2727C50.5636 34.2727 50.207 34.4119 49.9542 34.6903C49.7013 34.9659 49.5749 35.3153 49.5749 35.7386V40H48.5522V35.517C48.5522 35.1449 48.4315 34.8452 48.19 34.6179C47.9485 34.3878 47.6374 34.2727 47.2567 34.2727C46.9954 34.2727 46.7511 34.3423 46.5238 34.4815C46.2994 34.6207 46.1175 34.8139 45.9783 35.0611C45.842 35.3054 45.7738 35.5881 45.7738 35.9091V40H44.7681ZM59.3228 37.3239V33.4545H60.3285V40H59.3228V38.892H59.2546C59.1012 39.2244 58.8626 39.5071 58.5387 39.7401C58.2148 39.9702 57.8058 40.0852 57.3114 40.0852C56.9023 40.0852 56.5387 39.9957 56.2205 39.8168C55.9023 39.6349 55.6523 39.3622 55.4705 38.9986C55.2887 38.6321 55.1978 38.1705 55.1978 37.6136V33.4545H56.2035V37.5455C56.2035 38.0227 56.337 38.4034 56.604 38.6875C56.8739 38.9716 57.2177 39.1136 57.6353 39.1136C57.8853 39.1136 58.1396 39.0497 58.3981 38.9219C58.6594 38.794 58.8782 38.598 59.0543 38.3338C59.2333 38.0696 59.3228 37.733 59.3228 37.3239ZM63.1761 31.2727V40H62.1705V31.2727H63.1761ZM66.9442 40.1534C66.5295 40.1534 66.1531 40.0753 65.815 39.919C65.4769 39.7599 65.2085 39.5312 65.0096 39.233C64.8107 38.9318 64.7113 38.5682 64.7113 38.142C64.7113 37.767 64.7852 37.4631 64.9329 37.2301C65.0806 36.9943 65.2781 36.8097 65.5252 36.6761C65.7724 36.5426 66.0451 36.4432 66.3434 36.3778C66.6445 36.3097 66.9471 36.2557 67.2511 36.2159C67.6488 36.1648 67.9712 36.1264 68.2184 36.1009C68.4684 36.0724 68.6502 36.0256 68.7638 35.9602C68.8803 35.8949 68.9386 35.7812 68.9386 35.6193V35.5852C68.9386 35.1648 68.8235 34.8381 68.5934 34.6051C68.3661 34.3722 68.021 34.2557 67.5579 34.2557C67.0778 34.2557 66.7013 34.3608 66.4286 34.571C66.1559 34.7812 65.9641 35.0057 65.8533 35.2443L64.8988 34.9034C65.0692 34.5057 65.2965 34.196 65.5806 33.9744C65.8675 33.75 66.18 33.5937 66.5181 33.5057C66.859 33.4148 67.1942 33.3693 67.5238 33.3693C67.734 33.3693 67.9755 33.3949 68.2482 33.446C68.5238 33.4943 68.7894 33.5952 69.0451 33.7486C69.3036 33.902 69.5181 34.1335 69.6886 34.4432C69.859 34.7528 69.9442 35.1676 69.9442 35.6875V40H68.9386V39.1136H68.8874C68.8192 39.2557 68.7056 39.4077 68.5465 39.5696C68.3874 39.7315 68.1758 39.8693 67.9116 39.983C67.6474 40.0966 67.3249 40.1534 66.9442 40.1534ZM67.0977 39.25C67.4954 39.25 67.8306 39.1719 68.1033 39.0156C68.3789 38.8594 68.5863 38.6577 68.7255 38.4105C68.8675 38.1634 68.9386 37.9034 68.9386 37.6307V36.7102C68.896 36.7614 68.8022 36.8082 68.6573 36.8509C68.5153 36.8906 68.3505 36.9261 68.163 36.9574C67.9783 36.9858 67.7979 37.0114 67.6218 37.0341C67.4485 37.054 67.3079 37.071 67.1999 37.0852C66.9386 37.1193 66.6942 37.1747 66.467 37.2514C66.2425 37.3253 66.0607 37.4375 65.9215 37.5881C65.7852 37.7358 65.717 37.9375 65.717 38.1932C65.717 38.5426 65.8462 38.8068 66.1048 38.9858C66.3661 39.1619 66.6971 39.25 67.0977 39.25ZM74.6264 33.4545V34.3068H71.2344V33.4545H74.6264ZM72.223 31.8864H73.2287V38.125C73.2287 38.4091 73.2699 38.6222 73.3523 38.7642C73.4375 38.9034 73.5455 38.9972 73.6761 39.0455C73.8097 39.0909 73.9503 39.1136 74.098 39.1136C74.2088 39.1136 74.2997 39.108 74.3707 39.0966C74.4418 39.0824 74.4986 39.071 74.5412 39.0625L74.7457 39.9659C74.6776 39.9915 74.5824 40.017 74.4602 40.0426C74.3381 40.071 74.1832 40.0852 73.9957 40.0852C73.7116 40.0852 73.4332 40.0241 73.1605 39.902C72.8906 39.7798 72.6662 39.5938 72.4872 39.3438C72.3111 39.0938 72.223 38.7784 72.223 38.3977V31.8864ZM78.728 40.1364C78.1371 40.1364 77.6186 39.9957 77.1726 39.7145C76.7294 39.4332 76.3828 39.0398 76.1328 38.5341C75.8857 38.0284 75.7621 37.4375 75.7621 36.7614C75.7621 36.0795 75.8857 35.4844 76.1328 34.9759C76.3828 34.4673 76.7294 34.0724 77.1726 33.7912C77.6186 33.5099 78.1371 33.3693 78.728 33.3693C79.3189 33.3693 79.8359 33.5099 80.2791 33.7912C80.7251 34.0724 81.0717 34.4673 81.3189 34.9759C81.5689 35.4844 81.6939 36.0795 81.6939 36.7614C81.6939 37.4375 81.5689 38.0284 81.3189 38.5341C81.0717 39.0398 80.7251 39.4332 80.2791 39.7145C79.8359 39.9957 79.3189 40.1364 78.728 40.1364ZM78.728 39.233C79.1768 39.233 79.5462 39.1179 79.8359 38.8878C80.1257 38.6577 80.3402 38.3551 80.4794 37.9801C80.6186 37.6051 80.6882 37.1989 80.6882 36.7614C80.6882 36.3239 80.6186 35.9162 80.4794 35.5384C80.3402 35.1605 80.1257 34.8551 79.8359 34.6222C79.5462 34.3892 79.1768 34.2727 78.728 34.2727C78.2791 34.2727 77.9098 34.3892 77.62 34.6222C77.3303 34.8551 77.1158 35.1605 76.9766 35.5384C76.8374 35.9162 76.7678 36.3239 76.7678 36.7614C76.7678 37.1989 76.8374 37.6051 76.9766 37.9801C77.1158 38.3551 77.3303 38.6577 77.62 38.8878C77.9098 39.1179 78.2791 39.233 78.728 39.233ZM83.229 40V33.4545H84.2006V34.4432H84.2688C84.3881 34.1193 84.604 33.8565 84.9165 33.6548C85.229 33.4531 85.5813 33.3523 85.9734 33.3523C86.0472 33.3523 86.1396 33.3537 86.2504 33.3565C86.3612 33.3594 86.445 33.3636 86.5018 33.3693V34.392C86.4677 34.3835 86.3896 34.3707 86.2674 34.3537C86.1481 34.3338 86.0217 34.3239 85.8881 34.3239C85.57 34.3239 85.2859 34.3906 85.0359 34.5241C84.7887 34.6548 84.5927 34.8366 84.4478 35.0696C84.3058 35.2997 84.2347 35.5625 84.2347 35.858V40H83.229Z" fill="black"/>
<path d="M93.5455 62.6364C90.5455 62.6364 87.8712 62.1212 85.5227 61.0909C83.1894 60.0606 81.3333 58.6288 79.9545 56.7955C78.5909 54.947 77.8485 52.803 77.7273 50.3636H83.4545C83.5758 51.8636 84.0909 53.1591 85 54.25C85.9091 55.3258 87.0985 56.1591 88.5682 56.75C90.0379 57.3409 91.6667 57.6364 93.4545 57.6364C95.4545 57.6364 97.2273 57.2879 98.7727 56.5909C100.318 55.8939 101.53 54.9242 102.409 53.6818C103.288 52.4394 103.727 51 103.727 49.3636C103.727 47.6515 103.303 46.1439 102.455 44.8409C101.606 43.5227 100.364 42.4924 98.7273 41.75C97.0909 41.0076 95.0909 40.6364 92.7273 40.6364H89V35.6364H92.7273C94.5758 35.6364 96.197 35.303 97.5909 34.6364C99 33.9697 100.098 33.0303 100.886 31.8182C101.689 30.6061 102.091 29.1818 102.091 27.5455C102.091 25.9697 101.742 24.5985 101.045 23.4318C100.348 22.2651 99.3636 21.3561 98.0909 20.7045C96.8333 20.053 95.3485 19.7273 93.6364 19.7273C92.0303 19.7273 90.5152 20.0227 89.0909 20.6136C87.6818 21.1894 86.5303 22.0303 85.6364 23.1364C84.7424 24.2273 84.2576 25.5455 84.1818 27.0909H78.7273C78.8182 24.6515 79.553 22.5151 80.9318 20.6818C82.3106 18.8333 84.1136 17.3939 86.3409 16.3636C88.5833 15.3333 91.0455 14.8182 93.7273 14.8182C96.6061 14.8182 99.0758 15.4015 101.136 16.5682C103.197 17.7197 104.78 19.2424 105.886 21.1364C106.992 23.0303 107.545 25.0758 107.545 27.2727C107.545 29.8939 106.856 32.1288 105.477 33.9773C104.114 35.8258 102.258 37.1061 99.9091 37.8182V38.1818C102.848 38.6667 105.144 39.9167 106.795 41.9318C108.447 43.9318 109.273 46.4091 109.273 49.3636C109.273 51.8939 108.583 54.1667 107.205 56.1818C105.841 58.1818 103.977 59.7576 101.614 60.9091C99.25 62.0606 96.5606 62.6364 93.5455 62.6364Z" fill="black"/>
<path d="M2.52273 42V24.5455H3.58807V41.0114H12.1108V42H2.52273Z" fill="black"/>
<path d="M39.3722 31.8182C39.3118 31.2109 39.0437 30.728 38.5678 30.3693C38.092 30.0107 37.4936 29.8313 36.7727 29.8313C36.2649 29.8313 35.8175 29.9183 35.4304 30.0923C35.0469 30.2663 34.745 30.5078 34.5249 30.8168C34.3082 31.1222 34.1999 31.4702 34.1999 31.8608C34.1999 32.1484 34.2621 32.4006 34.3864 32.6172C34.5107 32.8338 34.6776 33.0202 34.8871 33.1765C35.1001 33.3292 35.3345 33.4606 35.5902 33.5707C35.8494 33.6808 36.1104 33.7731 36.3732 33.8477L37.5238 34.1779C37.8718 34.2738 38.2198 34.3963 38.5678 34.5455C38.9158 34.6946 39.2337 34.8828 39.5213 35.1101C39.8125 35.3338 40.0451 35.609 40.2191 35.9357C40.3967 36.2589 40.4854 36.6477 40.4854 37.1023C40.4854 37.6847 40.3345 38.2085 40.0327 38.6737C39.7308 39.1388 39.2976 39.5082 38.733 39.7816C38.1683 40.0515 37.4918 40.1864 36.7035 40.1864C35.9613 40.1864 35.3168 40.0639 34.7699 39.8189C34.223 39.5703 33.7933 39.2276 33.4808 38.7908C33.1683 38.354 32.9925 37.848 32.9535 37.2727H33.9762C34.0117 37.7024 34.1538 38.0664 34.4023 38.3647C34.6509 38.663 34.9741 38.8903 35.3718 39.0465C35.7695 39.1992 36.2134 39.2756 36.7035 39.2756C37.2468 39.2756 37.7298 39.185 38.1523 39.0039C38.5785 38.8192 38.9123 38.5636 39.1538 38.2369C39.3988 37.9066 39.5213 37.5231 39.5213 37.0863C39.5213 36.717 39.4254 36.408 39.2337 36.1594C39.0419 35.9073 38.7738 35.696 38.4293 35.5256C38.0884 35.3551 37.6925 35.2042 37.2415 35.0728L35.9364 34.6893C35.0806 34.4336 34.4165 34.0803 33.9442 33.6293C33.4719 33.1783 33.2358 32.603 33.2358 31.9034C33.2358 31.3175 33.392 30.8026 33.7045 30.3587C34.0206 29.9112 34.4467 29.5632 34.983 29.3146C35.5227 29.0625 36.1282 28.9364 36.7994 28.9364C37.4776 28.9364 38.0778 29.0607 38.5998 29.3093C39.1218 29.5579 39.5355 29.9006 39.8409 30.3374C40.1499 30.7706 40.315 31.2642 40.3363 31.8182H39.3722Z" fill="black"/>
<line x1="16" y1="41.5" x2="87" y2="41.5" stroke="black"/>
</svg>
