<svg width="103" height="30" viewBox="0 0 103 30" fill="none" xmlns="http://www.w3.org/2000/svg">
<path d="M8.66477 21.1364C8.03409 21.1364 7.49006 20.9972 7.03267 20.7188C6.57812 20.4375 6.22727 20.0455 5.98011 19.5426C5.7358 19.0369 5.61364 18.4489 5.61364 17.7784C5.61364 17.108 5.7358 16.517 5.98011 16.0057C6.22727 15.4915 6.57102 15.0909 7.01136 14.804C7.45455 14.5142 7.97159 14.3693 8.5625 14.3693C8.90341 14.3693 9.24006 14.4261 9.57244 14.5398C9.90483 14.6534 10.2074 14.8381 10.4801 15.0938C10.7528 15.3466 10.9702 15.6818 11.1321 16.0994C11.294 16.517 11.375 17.0312 11.375 17.642V18.0682H6.32955V17.1989H10.3523C10.3523 16.8295 10.2784 16.5 10.1307 16.2102C9.9858 15.9205 9.77841 15.6918 9.50852 15.5241C9.24148 15.3565 8.92614 15.2727 8.5625 15.2727C8.16193 15.2727 7.81534 15.3722 7.52273 15.571C7.23295 15.767 7.00994 16.0227 6.85369 16.3381C6.69744 16.6534 6.61932 16.9915 6.61932 17.3523V17.9318C6.61932 18.4261 6.70455 18.8452 6.875 19.1889C7.0483 19.5298 7.28835 19.7898 7.59517 19.9688C7.90199 20.1449 8.25852 20.233 8.66477 20.233C8.92898 20.233 9.16761 20.196 9.38068 20.1222C9.59659 20.0455 9.78267 19.9318 9.93892 19.7812C10.0952 19.6278 10.2159 19.4375 10.3011 19.2102L11.2727 19.483C11.1705 19.8125 10.9986 20.1023 10.7571 20.3523C10.5156 20.5994 10.2173 20.7926 9.86222 20.9318C9.5071 21.0682 9.10795 21.1364 8.66477 21.1364ZM18.0579 14.4545L15.6374 21H14.6147L12.1942 14.4545H13.2852L15.092 19.6705H15.1602L16.967 14.4545H18.0579ZM21.8952 21.1364C21.2646 21.1364 20.7205 20.9972 20.2631 20.7188C19.8086 20.4375 19.4577 20.0455 19.2106 19.5426C18.9663 19.0369 18.8441 18.4489 18.8441 17.7784C18.8441 17.108 18.9663 16.517 19.2106 16.0057C19.4577 15.4915 19.8015 15.0909 20.2418 14.804C20.685 14.5142 21.2021 14.3693 21.793 14.3693C22.1339 14.3693 22.4705 14.4261 22.8029 14.5398C23.1353 14.6534 23.4379 14.8381 23.7106 15.0938C23.9833 15.3466 24.2006 15.6818 24.3626 16.0994C24.5245 16.517 24.6055 17.0312 24.6055 17.642V18.0682H19.56V17.1989H23.5827C23.5827 16.8295 23.5089 16.5 23.3612 16.2102C23.2163 15.9205 23.0089 15.6918 22.739 15.5241C22.4719 15.3565 22.1566 15.2727 21.793 15.2727C21.3924 15.2727 21.0458 15.3722 20.7532 15.571C20.4634 15.767 20.2404 16.0227 20.0842 16.3381C19.9279 16.6534 19.8498 16.9915 19.8498 17.3523V17.9318C19.8498 18.4261 19.935 18.8452 20.1055 19.1889C20.2788 19.5298 20.5188 19.7898 20.8256 19.9688C21.1325 20.1449 21.489 20.233 21.8952 20.233C22.1594 20.233 22.3981 20.196 22.6112 20.1222C22.8271 20.0455 23.0131 19.9318 23.1694 19.7812C23.3256 19.6278 23.4464 19.4375 23.5316 19.2102L24.5032 19.483C24.4009 19.8125 24.229 20.1023 23.9876 20.3523C23.7461 20.5994 23.4478 20.7926 23.0927 20.9318C22.7376 21.0682 22.3384 21.1364 21.8952 21.1364ZM26.1353 21V14.4545H27.1069V15.4432H27.1751C27.2944 15.1193 27.5103 14.8565 27.8228 14.6548C28.1353 14.4531 28.4876 14.3523 28.8796 14.3523C28.9535 14.3523 29.0458 14.3537 29.1566 14.3565C29.2674 14.3594 29.3512 14.3636 29.408 14.3693V15.392C29.3739 15.3835 29.2958 15.3707 29.1737 15.3537C29.0543 15.3338 28.9279 15.3239 28.7944 15.3239C28.4762 15.3239 28.1921 15.3906 27.9421 15.5241C27.695 15.6548 27.4989 15.8366 27.354 16.0696C27.212 16.2997 27.141 16.5625 27.141 16.858V21H26.1353Z" fill="black"/>
<path d="M41.9205 21V14.4545H42.9261V21H41.9205ZM42.4318 13.3636C42.2358 13.3636 42.0668 13.2969 41.9247 13.1634C41.7855 13.0298 41.7159 12.8693 41.7159 12.6818C41.7159 12.4943 41.7855 12.3338 41.9247 12.2003C42.0668 12.0668 42.2358 12 42.4318 12C42.6278 12 42.7955 12.0668 42.9347 12.2003C43.0767 12.3338 43.1477 12.4943 43.1477 12.6818C43.1477 12.8693 43.0767 13.0298 42.9347 13.1634C42.7955 13.2969 42.6278 13.3636 42.4318 13.3636ZM44.7681 21V14.4545H45.7397V15.4773H45.8249C45.9613 15.1278 46.1815 14.8565 46.4854 14.6634C46.7894 14.4673 47.1545 14.3693 47.5806 14.3693C48.0124 14.3693 48.3718 14.4673 48.6587 14.6634C48.9485 14.8565 49.1744 15.1278 49.3363 15.4773H49.4045C49.5721 15.1392 49.8235 14.8707 50.1587 14.6719C50.494 14.4702 50.896 14.3693 51.3647 14.3693C51.9499 14.3693 52.4286 14.5526 52.8008 14.919C53.1729 15.2827 53.359 15.8494 53.359 16.6193V21H52.3533V16.6193C52.3533 16.1364 52.2212 15.7912 51.957 15.5838C51.6928 15.3764 51.3817 15.2727 51.0238 15.2727C50.5636 15.2727 50.207 15.4119 49.9542 15.6903C49.7013 15.9659 49.5749 16.3153 49.5749 16.7386V21H48.5522V16.517C48.5522 16.1449 48.4315 15.8452 48.19 15.6179C47.9485 15.3878 47.6374 15.2727 47.2567 15.2727C46.9954 15.2727 46.7511 15.3423 46.5238 15.4815C46.2994 15.6207 46.1175 15.8139 45.9783 16.0611C45.842 16.3054 45.7738 16.5881 45.7738 16.9091V21H44.7681ZM59.3228 18.3239V14.4545H60.3285V21H59.3228V19.892H59.2546C59.1012 20.2244 58.8626 20.5071 58.5387 20.7401C58.2148 20.9702 57.8058 21.0852 57.3114 21.0852C56.9023 21.0852 56.5387 20.9957 56.2205 20.8168C55.9023 20.6349 55.6523 20.3622 55.4705 19.9986C55.2887 19.6321 55.1978 19.1705 55.1978 18.6136V14.4545H56.2035V18.5455C56.2035 19.0227 56.337 19.4034 56.604 19.6875C56.8739 19.9716 57.2177 20.1136 57.6353 20.1136C57.8853 20.1136 58.1396 20.0497 58.3981 19.9219C58.6594 19.794 58.8782 19.598 59.0543 19.3338C59.2333 19.0696 59.3228 18.733 59.3228 18.3239ZM63.1761 12.2727V21H62.1705V12.2727H63.1761ZM66.9442 21.1534C66.5295 21.1534 66.1531 21.0753 65.815 20.919C65.4769 20.7599 65.2085 20.5312 65.0096 20.233C64.8107 19.9318 64.7113 19.5682 64.7113 19.142C64.7113 18.767 64.7852 18.4631 64.9329 18.2301C65.0806 17.9943 65.2781 17.8097 65.5252 17.6761C65.7724 17.5426 66.0451 17.4432 66.3434 17.3778C66.6445 17.3097 66.9471 17.2557 67.2511 17.2159C67.6488 17.1648 67.9712 17.1264 68.2184 17.1009C68.4684 17.0724 68.6502 17.0256 68.7638 16.9602C68.8803 16.8949 68.9386 16.7812 68.9386 16.6193V16.5852C68.9386 16.1648 68.8235 15.8381 68.5934 15.6051C68.3661 15.3722 68.021 15.2557 67.5579 15.2557C67.0778 15.2557 66.7013 15.3608 66.4286 15.571C66.1559 15.7812 65.9641 16.0057 65.8533 16.2443L64.8988 15.9034C65.0692 15.5057 65.2965 15.196 65.5806 14.9744C65.8675 14.75 66.18 14.5937 66.5181 14.5057C66.859 14.4148 67.1942 14.3693 67.5238 14.3693C67.734 14.3693 67.9755 14.3949 68.2482 14.446C68.5238 14.4943 68.7894 14.5952 69.0451 14.7486C69.3036 14.902 69.5181 15.1335 69.6886 15.4432C69.859 15.7528 69.9442 16.1676 69.9442 16.6875V21H68.9386V20.1136H68.8874C68.8192 20.2557 68.7056 20.4077 68.5465 20.5696C68.3874 20.7315 68.1758 20.8693 67.9116 20.983C67.6474 21.0966 67.3249 21.1534 66.9442 21.1534ZM67.0977 20.25C67.4954 20.25 67.8306 20.1719 68.1033 20.0156C68.3789 19.8594 68.5863 19.6577 68.7255 19.4105C68.8675 19.1634 68.9386 18.9034 68.9386 18.6307V17.7102C68.896 17.7614 68.8022 17.8082 68.6573 17.8509C68.5153 17.8906 68.3505 17.9261 68.163 17.9574C67.9783 17.9858 67.7979 18.0114 67.6218 18.0341C67.4485 18.054 67.3079 18.071 67.1999 18.0852C66.9386 18.1193 66.6942 18.1747 66.467 18.2514C66.2425 18.3253 66.0607 18.4375 65.9215 18.5881C65.7852 18.7358 65.717 18.9375 65.717 19.1932C65.717 19.5426 65.8462 19.8068 66.1048 19.9858C66.3661 20.1619 66.6971 20.25 67.0977 20.25ZM74.6264 14.4545V15.3068H71.2344V14.4545H74.6264ZM72.223 12.8864H73.2287V19.125C73.2287 19.4091 73.2699 19.6222 73.3523 19.7642C73.4375 19.9034 73.5455 19.9972 73.6761 20.0455C73.8097 20.0909 73.9503 20.1136 74.098 20.1136C74.2088 20.1136 74.2997 20.108 74.3707 20.0966C74.4418 20.0824 74.4986 20.071 74.5412 20.0625L74.7457 20.9659C74.6776 20.9915 74.5824 21.017 74.4602 21.0426C74.3381 21.071 74.1832 21.0852 73.9957 21.0852C73.7116 21.0852 73.4332 21.0241 73.1605 20.902C72.8906 20.7798 72.6662 20.5938 72.4872 20.3438C72.3111 20.0938 72.223 19.7784 72.223 19.3977V12.8864ZM78.728 21.1364C78.1371 21.1364 77.6186 20.9957 77.1726 20.7145C76.7294 20.4332 76.3828 20.0398 76.1328 19.5341C75.8857 19.0284 75.7621 18.4375 75.7621 17.7614C75.7621 17.0795 75.8857 16.4844 76.1328 15.9759C76.3828 15.4673 76.7294 15.0724 77.1726 14.7912C77.6186 14.5099 78.1371 14.3693 78.728 14.3693C79.3189 14.3693 79.8359 14.5099 80.2791 14.7912C80.7251 15.0724 81.0717 15.4673 81.3189 15.9759C81.5689 16.4844 81.6939 17.0795 81.6939 17.7614C81.6939 18.4375 81.5689 19.0284 81.3189 19.5341C81.0717 20.0398 80.7251 20.4332 80.2791 20.7145C79.8359 20.9957 79.3189 21.1364 78.728 21.1364ZM78.728 20.233C79.1768 20.233 79.5462 20.1179 79.8359 19.8878C80.1257 19.6577 80.3402 19.3551 80.4794 18.9801C80.6186 18.6051 80.6882 18.1989 80.6882 17.7614C80.6882 17.3239 80.6186 16.9162 80.4794 16.5384C80.3402 16.1605 80.1257 15.8551 79.8359 15.6222C79.5462 15.3892 79.1768 15.2727 78.728 15.2727C78.2791 15.2727 77.9098 15.3892 77.62 15.6222C77.3303 15.8551 77.1158 16.1605 76.9766 16.5384C76.8374 16.9162 76.7678 17.3239 76.7678 17.7614C76.7678 18.1989 76.8374 18.6051 76.9766 18.9801C77.1158 19.3551 77.3303 19.6577 77.62 19.8878C77.9098 20.1179 78.2791 20.233 78.728 20.233ZM83.229 21V14.4545H84.2006V15.4432H84.2688C84.3881 15.1193 84.604 14.8565 84.9165 14.6548C85.229 14.4531 85.5813 14.3523 85.9734 14.3523C86.0472 14.3523 86.1396 14.3537 86.2504 14.3565C86.3612 14.3594 86.445 14.3636 86.5018 14.3693V15.392C86.4677 15.3835 86.3896 15.3707 86.2674 15.3537C86.1481 15.3338 86.0217 15.3239 85.8881 15.3239C85.57 15.3239 85.2859 15.3906 85.0359 15.5241C84.7887 15.6548 84.5927 15.8366 84.4478 16.0696C84.3058 16.2997 84.2347 16.5625 84.2347 16.858V21H83.229Z" fill="black"/>
<path d="M94.7045 24.2386C93.5795 24.2386 92.5767 24.0455 91.696 23.6591C90.821 23.2727 90.125 22.7358 89.608 22.0483C89.0966 21.3551 88.8182 20.5511 88.7727 19.6364H90.9205C90.9659 20.1989 91.1591 20.6847 91.5 21.0938C91.8409 21.4972 92.2869 21.8097 92.8381 22.0312C93.3892 22.2528 94 22.3636 94.6705 22.3636C95.4205 22.3636 96.0852 22.233 96.6648 21.9716C97.2443 21.7102 97.6989 21.3466 98.0284 20.8807C98.358 20.4148 98.5227 19.875 98.5227 19.2614C98.5227 18.6193 98.3636 18.054 98.0455 17.5653C97.7273 17.071 97.2614 16.6847 96.6477 16.4062C96.0341 16.1278 95.2841 15.9886 94.3977 15.9886H93V14.1136H94.3977C95.0909 14.1136 95.6989 13.9886 96.2216 13.7386C96.75 13.4886 97.1619 13.1364 97.4574 12.6818C97.7585 12.2273 97.9091 11.6932 97.9091 11.0795C97.9091 10.4886 97.7784 9.97443 97.517 9.53693C97.2557 9.09943 96.8864 8.75852 96.4091 8.5142C95.9375 8.26989 95.3807 8.14773 94.7386 8.14773C94.1364 8.14773 93.5682 8.25852 93.0341 8.48011C92.5057 8.69602 92.0739 9.01136 91.7386 9.42614C91.4034 9.83523 91.2216 10.3295 91.1932 10.9091H89.1477C89.1818 9.99432 89.4574 9.19318 89.9744 8.50568C90.4915 7.8125 91.1676 7.27273 92.0028 6.88636C92.8438 6.5 93.767 6.30682 94.7727 6.30682C95.8523 6.30682 96.7784 6.52557 97.5511 6.96307C98.3239 7.39489 98.9176 7.96591 99.3324 8.67614C99.7472 9.38636 99.9545 10.1534 99.9545 10.9773C99.9545 11.9602 99.696 12.7983 99.179 13.4915C98.6676 14.1847 97.9716 14.6648 97.0909 14.9318V15.0682C98.1932 15.25 99.054 15.7187 99.6733 16.4744C100.293 17.2244 100.602 18.1534 100.602 19.2614C100.602 20.2102 100.344 21.0625 99.8267 21.8182C99.3153 22.5682 98.6165 23.1591 97.7301 23.5909C96.8438 24.0227 95.8352 24.2386 94.7045 24.2386Z" fill="black"/>
<path d="M2.52273 23V5.54545H3.58807V22.0114H12.1108V23H2.52273Z" fill="black"/>
<path d="M39.3722 12.8182C39.3118 12.2109 39.0437 11.728 38.5678 11.3693C38.092 11.0107 37.4936 10.8313 36.7727 10.8313C36.2649 10.8313 35.8175 10.9183 35.4304 11.0923C35.0469 11.2663 34.745 11.5078 34.5249 11.8168C34.3082 12.1222 34.1999 12.4702 34.1999 12.8608C34.1999 13.1484 34.2621 13.4006 34.3864 13.6172C34.5107 13.8338 34.6776 14.0202 34.8871 14.1765C35.1001 14.3292 35.3345 14.4606 35.5902 14.5707C35.8494 14.6808 36.1104 14.7731 36.3732 14.8477L37.5238 15.1779C37.8718 15.2738 38.2198 15.3963 38.5678 15.5455C38.9158 15.6946 39.2337 15.8828 39.5213 16.1101C39.8125 16.3338 40.0451 16.609 40.2191 16.9357C40.3967 17.2589 40.4854 17.6477 40.4854 18.1023C40.4854 18.6847 40.3345 19.2085 40.0327 19.6737C39.7308 20.1388 39.2976 20.5082 38.733 20.7816C38.1683 21.0515 37.4918 21.1864 36.7035 21.1864C35.9613 21.1864 35.3168 21.0639 34.7699 20.8189C34.223 20.5703 33.7933 20.2276 33.4808 19.7908C33.1683 19.354 32.9925 18.848 32.9535 18.2727H33.9762C34.0117 18.7024 34.1538 19.0664 34.4023 19.3647C34.6509 19.663 34.9741 19.8903 35.3718 20.0465C35.7695 20.1992 36.2134 20.2756 36.7035 20.2756C37.2468 20.2756 37.7298 20.185 38.1523 20.0039C38.5785 19.8192 38.9123 19.5636 39.1538 19.2369C39.3988 18.9066 39.5213 18.5231 39.5213 18.0863C39.5213 17.717 39.4254 17.408 39.2337 17.1594C39.0419 16.9073 38.7738 16.696 38.4293 16.5256C38.0884 16.3551 37.6925 16.2042 37.2415 16.0728L35.9364 15.6893C35.0806 15.4336 34.4165 15.0803 33.9442 14.6293C33.4719 14.1783 33.2358 13.603 33.2358 12.9034C33.2358 12.3175 33.392 11.8026 33.7045 11.3587C34.0206 10.9112 34.4467 10.5632 34.983 10.3146C35.5227 10.0625 36.1282 9.93643 36.7994 9.93643C37.4776 9.93643 38.0778 10.0607 38.5998 10.3093C39.1218 10.5579 39.5355 10.9006 39.8409 11.3374C40.1499 11.7706 40.315 12.2642 40.3363 12.8182H39.3722Z" fill="black"/>
<line x1="16" y1="22.5" x2="87" y2="22.5" stroke="black"/>
</svg>
